<?xml version="1.0" encoding="UTF-8"?> <svg xmlns="http://www.w3.org/2000/svg" width="160" height="160" viewBox="0 0 160 160" fill="none"><circle cx="80" cy="80" r="76" stroke="#4764EB" stroke-width="8"></circle><path d="M80 44C72.5739 44 65.452 46.95 60.201 52.201C54.95 57.452 52 64.5739 52 72C52 83.448 59.128 94.492 66.952 103.048C70.9547 107.404 75.3197 111.413 80 115.032C84.6802 111.416 89.0452 107.41 93.048 103.056C100.872 94.492 108 83.452 108 72C108 64.5739 105.05 57.452 99.799 52.201C94.548 46.95 87.4261 44 80 44ZM80 124.856L77.732 123.296L77.72 123.288L77.696 123.268L77.616 123.212L77.316 123C75.6597 121.796 74.0403 120.542 72.46 119.24C68.4095 115.913 64.5962 112.307 61.048 108.448C52.872 99.504 44 86.548 44 72C44 62.4522 47.7928 53.2955 54.5442 46.5442C61.2955 39.7928 70.4522 36 80 36C89.5478 36 98.7045 39.7928 105.456 46.5442C112.207 53.2955 116 62.4522 116 72C116 86.548 107.128 99.508 98.952 108.448C94.3195 113.487 89.2371 118.092 83.768 122.208C83.3123 122.549 82.8522 122.883 82.388 123.212L82.304 123.268L82.28 123.288L82.272 123.292L80 124.856ZM80 64C77.8783 64 75.8434 64.8429 74.3431 66.3432C72.8429 67.8434 72 69.8783 72 72C72 74.1217 72.8429 76.1566 74.3431 77.6569C75.8434 79.1571 77.8783 80 80 80C82.1217 80 84.1566 79.1571 85.6569 77.6569C87.1571 76.1566 88 74.1217 88 72C88 69.8783 87.1571 67.8434 85.6569 66.3432C84.1566 64.8429 82.1217 64 80 64ZM64 72C64 67.7565 65.6857 63.6869 68.6863 60.6863C71.6869 57.6857 75.7565 56 80 56C84.2435 56 88.3131 57.6857 91.3137 60.6863C94.3143 63.6869 96 67.7565 96 72C96 76.2435 94.3143 80.3131 91.3137 83.3137C88.3131 86.3143 84.2435 88 80 88C75.7565 88 71.6869 86.3143 68.6863 83.3137C65.6857 80.3131 64 76.2435 64 72Z" fill="#4764EB"></path></svg> 