<?xml version="1.0" encoding="UTF-8"?> <svg xmlns="http://www.w3.org/2000/svg" width="160" height="160" viewBox="0 0 160 160" fill="none"><circle cx="80" cy="80" r="76" stroke="#4764EB" stroke-width="8"></circle><path d="M43.25 60.5834C43.25 58.4174 44.1104 56.3402 45.642 54.8086C47.1735 53.2771 49.2507 52.4167 51.4167 52.4167H108.583C110.749 52.4167 112.826 53.2771 114.358 54.8086C115.89 56.3402 116.75 58.4174 116.75 60.5834V101.417C116.75 103.583 115.89 105.66 114.358 107.191C112.826 108.723 110.749 109.583 108.583 109.583H51.4167C49.2507 109.583 47.1735 108.723 45.642 107.191C44.1104 105.66 43.25 103.583 43.25 101.417V60.5834Z" stroke="#4764EB" stroke-width="7" stroke-linecap="round" stroke-linejoin="round"></path><path d="M43.25 60.5834L80 85.0834L116.75 60.5834" stroke="#4764EB" stroke-width="7" stroke-linecap="round" stroke-linejoin="round"></path></svg> 